<?xml version="1.0" encoding="utf-8"?>
<!-- Generator: Adobe Illustrator 15.1.0, SVG Export Plug-In . SVG Version: 6.00 Build 0)  -->
<!DOCTYPE svg PUBLIC "-//W3C//DTD SVG 1.1//EN" "http://www.w3.org/Graphics/SVG/1.1/DTD/svg11.dtd">
<svg version="1.1" id="Layer_1" xmlns="http://www.w3.org/2000/svg" xmlns:xlink="http://www.w3.org/1999/xlink" x="0px" y="0px"
	 width="472.226px" height="160.765px" viewBox="0 0 472.226 160.765" enable-background="new 0 0 472.226 160.765"
	 xml:space="preserve">
<path fill="#646569" d="M234.919,62.106l-3.113,8.823h6.178L234.919,62.106z M239.819,76.256l-1.323-3.778h-7.224l-1.323,3.778
	h-1.881l6.084-16.707h1.486l6.062,16.707H239.819z"/>
<g>
	<defs>
		<rect id="SVGID_1_" width="472.226" height="160.765"/>
	</defs>
	<clipPath id="SVGID_2_">
		<use xlink:href="#SVGID_1_"  overflow="visible"/>
	</clipPath>
	<path clip-path="url(#SVGID_2_)" fill="#646569" d="M246.925,76.256c-1.997,0-2.902-1.313-2.902-3.074V59.549h1.672v13.563
		c0,1.126,0.371,1.689,1.532,1.689h0.905v1.455H246.925z"/>
	<path clip-path="url(#SVGID_2_)" fill="#646569" d="M255.516,66.074c-2.482,0-2.879,2.158-2.879,4.411
		c0,2.252,0.396,4.41,2.879,4.41c2.486,0,2.857-2.158,2.857-4.41C258.373,68.231,258.002,66.074,255.516,66.074 M258.652,75.389
		c-0.604,0.609-1.626,1.008-2.786,1.008c-1.254,0-2.299-0.305-3.229-1.525v1.384h-1.672V59.548h1.672v6.501
		c0.931-1.197,1.976-1.478,3.229-1.478c1.16,0,2.182,0.398,2.786,1.008c1.162,1.174,1.394,3.098,1.394,4.905
		C260.046,72.291,259.814,74.214,258.652,75.389"/>
	<path clip-path="url(#SVGID_2_)" fill="#646569" d="M269.772,67.738c-0.441-1.055-1.462-1.736-2.671-1.736
		c-1.207,0-2.229,0.681-2.67,1.736c-0.255,0.634-0.302,0.985-0.349,1.924h6.038C270.074,68.723,270.027,68.372,269.772,67.738
		 M264.083,70.93c0,2.534,1.185,3.988,3.368,3.988c1.323,0,2.091-0.399,2.994-1.313l1.139,1.01c-1.161,1.172-2.23,1.781-4.182,1.781
		c-3.018,0-4.99-1.83-4.99-5.911c0-3.731,1.787-5.913,4.689-5.913c2.95,0,4.691,2.158,4.691,5.583v0.775H264.083z"/>
	<path clip-path="url(#SVGID_2_)" fill="#646569" d="M281.4,66.917c-0.628-0.633-1.095-0.844-1.977-0.844
		c-1.67,0-2.738,1.338-2.738,3.097v7.086h-1.673V64.711h1.673v1.409c0.628-0.962,1.881-1.548,3.203-1.548
		c1.093,0,1.929,0.257,2.741,1.077L281.4,66.917z"/>
	<path clip-path="url(#SVGID_2_)" fill="#646569" d="M289.068,76.256c-1.95,0-2.928-1.385-2.928-3.098v-7.086h-1.438v-1.29h1.438
		v-3.614h1.672v3.614h2.44v1.29h-2.44v7.04c0,1.056,0.488,1.689,1.557,1.689h0.884v1.455H289.068z"/>
	<path clip-path="url(#SVGID_2_)" fill="#646569" d="M299.709,70.929h-3.204c-1.721,0-2.557,0.705-2.557,2.043
		c0,1.337,0.815,1.971,2.625,1.971c0.976,0,1.834-0.072,2.556-0.775c0.394-0.375,0.58-1.032,0.58-1.995V70.929z M299.709,76.256
		v-1.102c-0.931,0.938-1.766,1.243-3.299,1.243c-1.577,0-2.507-0.305-3.227-1.057c-0.558-0.562-0.86-1.43-0.86-2.346
		c0-2.018,1.396-3.331,3.948-3.331h3.438v-1.104c0-1.689-0.836-2.534-2.928-2.534c-1.462,0-2.205,0.353-2.878,1.315l-1.139-1.056
		c1.022-1.338,2.183-1.713,4.042-1.713c3.064,0,4.574,1.337,4.574,3.848v7.837H299.709z"/>
	<path clip-path="url(#SVGID_2_)" fill="#646569" d="M320.146,62.365c-0.86-0.891-1.975-1.221-3.252-1.221h-3.599v13.517h3.599
		c1.277,0,2.392-0.328,3.252-1.22c1.136-1.197,1.091-3.684,1.091-5.726C321.236,65.674,321.281,63.562,320.146,62.365
		 M321.376,74.708c-0.998,1.009-2.462,1.549-4.182,1.549h-5.666V59.548h5.666c1.72,0,3.184,0.54,4.182,1.55
		c1.718,1.737,1.626,4.295,1.626,6.617C323.002,70.039,323.094,72.971,321.376,74.708"/>
	<path clip-path="url(#SVGID_2_)" fill="#646569" d="M333.59,67.738c-0.44-1.055-1.462-1.736-2.67-1.736
		c-1.207,0-2.23,0.681-2.671,1.736c-0.254,0.634-0.302,0.985-0.348,1.924h6.038C333.891,68.723,333.846,68.372,333.59,67.738
		 M327.901,70.93c0,2.534,1.184,3.988,3.366,3.988c1.323,0,2.091-0.399,2.995-1.313l1.14,1.01c-1.161,1.172-2.23,1.781-4.182,1.781
		c-3.018,0-4.99-1.83-4.99-5.911c0-3.731,1.786-5.913,4.689-5.913c2.949,0,4.691,2.158,4.691,5.583v0.775H327.901z"/>
	<path clip-path="url(#SVGID_2_)" fill="#646569" d="M345.842,76.256v-7.11c0-2.041-1.094-3.074-2.812-3.074
		c-1.717,0-2.833,1.056-2.833,3.074v7.11h-1.671V64.711h1.671v1.268c0.814-0.939,1.928-1.408,3.206-1.408
		c1.231,0,2.23,0.375,2.925,1.078c0.813,0.799,1.185,1.878,1.185,3.215v7.392H345.842z"/>
	<path clip-path="url(#SVGID_2_)" fill="#646569" d="M354.283,76.256c-1.951,0-2.928-1.385-2.928-3.098v-7.086h-1.439v-1.29h1.439
		v-3.614h1.673v3.614h2.439v1.29h-2.439v7.04c0,1.056,0.487,1.689,1.557,1.689h0.883v1.455H354.283z"/>
	<path clip-path="url(#SVGID_2_)" fill="#646569" d="M365.081,70.929h-3.205c-1.72,0-2.557,0.705-2.557,2.043
		c0,1.337,0.814,1.971,2.625,1.971c0.977,0,1.835-0.072,2.555-0.775c0.395-0.375,0.582-1.032,0.582-1.995V70.929z M365.081,76.256
		v-1.102c-0.931,0.938-1.767,1.243-3.299,1.243c-1.579,0-2.508-0.305-3.229-1.057c-0.556-0.562-0.858-1.43-0.858-2.346
		c0-2.018,1.393-3.331,3.947-3.331h3.438v-1.104c0-1.689-0.836-2.534-2.928-2.534c-1.462,0-2.206,0.353-2.879,1.315l-1.138-1.056
		c1.021-1.338,2.183-1.713,4.042-1.713c3.063,0,4.573,1.337,4.573,3.848v7.837H365.081z"/>
	<path clip-path="url(#SVGID_2_)" fill="#646569" d="M373.34,76.256c-1.997,0-2.903-1.313-2.903-3.074V59.549h1.673v13.563
		c0,1.126,0.372,1.689,1.532,1.689h0.905v1.455H373.34z"/>
	<path clip-path="url(#SVGID_2_)" fill="#646569" d="M234.43,102.027c-2.484,0-4.11-0.633-5.665-2.206l1.206-1.219
		c1.371,1.384,2.648,1.829,4.507,1.829c2.414,0,3.899-1.148,3.899-3.098c0-0.869-0.255-1.619-0.79-2.088
		c-0.533-0.469-0.95-0.609-2.159-0.799l-1.928-0.305c-1.3-0.21-2.322-0.633-3.041-1.267c-0.837-0.75-1.255-1.783-1.255-3.12
		c0-2.84,2.022-4.717,5.294-4.717c2.115,0,3.507,0.539,4.924,1.83l-1.139,1.15c-1.021-0.939-2.112-1.433-3.855-1.433
		c-2.205,0-3.483,1.243-3.483,3.098c0,0.821,0.232,1.479,0.743,1.925c0.511,0.446,1.371,0.773,2.229,0.916l1.812,0.28
		c1.555,0.234,2.322,0.563,3.018,1.173c0.906,0.774,1.396,1.925,1.396,3.309C240.145,100.22,237.868,102.027,234.43,102.027"/>
	<path clip-path="url(#SVGID_2_)" fill="#646569" d="M250.023,93.368c-0.439-1.055-1.461-1.735-2.669-1.735s-2.23,0.681-2.671,1.735
		c-0.255,0.634-0.302,0.985-0.348,1.924h6.036C250.326,94.353,250.28,94.001,250.023,93.368 M244.336,96.56
		c0,2.534,1.184,3.988,3.365,3.988c1.323,0,2.092-0.399,2.996-1.313l1.14,1.009c-1.161,1.173-2.23,1.782-4.182,1.782
		c-3.018,0-4.993-1.83-4.993-5.911c0-3.73,1.788-5.913,4.692-5.913c2.948,0,4.691,2.157,4.691,5.583v0.775H244.336z"/>
	<path clip-path="url(#SVGID_2_)" fill="#646569" d="M260.95,92.546c-0.627-0.633-1.091-0.844-1.974-0.844
		c-1.673,0-2.74,1.338-2.74,3.097v7.086h-1.673V90.34h1.673v1.409c0.627-0.962,1.881-1.548,3.204-1.548
		c1.093,0,1.929,0.257,2.74,1.077L260.95,92.546z"/>
	<polygon clip-path="url(#SVGID_2_)" fill="#646569" points="269.451,101.886 267.965,101.886 263.784,90.341 265.596,90.341 
		268.707,99.609 271.843,90.341 273.652,90.341 	"/>
	<path clip-path="url(#SVGID_2_)" fill="#646569" d="M276.603,90.342h1.673v11.545h-1.673V90.342z M276.509,85.156h1.882v1.901
		h-1.882V85.156z"/>
	<path clip-path="url(#SVGID_2_)" fill="#646569" d="M286.31,102.027c-2.88,0-5.063-1.972-5.063-5.913
		c0-3.942,2.183-5.913,5.063-5.913c1.58,0,2.579,0.422,3.763,1.713l-1.139,1.079c-0.858-0.963-1.531-1.29-2.624-1.29
		c-1.115,0-2.044,0.446-2.647,1.314c-0.535,0.751-0.744,1.642-0.744,3.097c0,1.456,0.209,2.347,0.744,3.098
		c0.604,0.868,1.532,1.313,2.647,1.313c1.093,0,1.766-0.353,2.624-1.313l1.139,1.103C288.889,101.605,287.89,102.027,286.31,102.027
		"/>
	<path clip-path="url(#SVGID_2_)" fill="#646569" d="M299.639,93.368c-0.44-1.055-1.461-1.735-2.67-1.735
		c-1.207,0-2.229,0.681-2.67,1.735c-0.256,0.634-0.302,0.985-0.348,1.924h6.035C299.941,94.353,299.895,94.001,299.639,93.368
		 M293.951,96.56c0,2.534,1.184,3.988,3.365,3.988c1.322,0,2.092-0.399,2.996-1.313l1.139,1.009
		c-1.161,1.173-2.229,1.782-4.182,1.782c-3.017,0-4.992-1.83-4.992-5.911c0-3.73,1.788-5.913,4.691-5.913
		c2.949,0,4.692,2.157,4.692,5.583v0.775H293.951z"/>
	<path clip-path="url(#SVGID_2_)" fill="#646569" d="M316.452,102.027c-1.626,0-3.112-0.611-4.228-1.737
		c-1.555-1.572-1.555-3.214-1.555-6.757c0-3.544,0-5.186,1.555-6.758c1.115-1.127,2.602-1.736,4.228-1.736
		c2.972,0,5.18,1.83,5.735,4.975h-1.811c-0.442-2.042-1.859-3.38-3.925-3.38c-1.092,0-2.137,0.424-2.855,1.175
		c-1.045,1.078-1.163,2.229-1.163,5.725c0,3.497,0.118,4.646,1.163,5.725c0.719,0.751,1.764,1.174,2.855,1.174
		c2.065,0,3.529-1.338,3.972-3.38h1.764C321.654,100.196,319.401,102.027,316.452,102.027"/>
	<path clip-path="url(#SVGID_2_)" fill="#646569" d="M331.941,92.546c-0.534-0.539-1.276-0.844-2.09-0.844
		c-0.812,0-1.533,0.305-2.067,0.844c-0.836,0.846-0.929,2.277-0.929,3.568c0,1.29,0.093,2.722,0.929,3.564
		c0.534,0.54,1.256,0.846,2.067,0.846c0.813,0,1.556-0.306,2.09-0.846c0.836-0.843,0.906-2.274,0.906-3.564
		C332.848,94.824,332.777,93.392,331.941,92.546 M333.127,100.713c-0.789,0.798-1.883,1.313-3.275,1.313s-2.486-0.516-3.274-1.313
		c-1.16-1.197-1.393-2.816-1.393-4.599c0-1.783,0.232-3.403,1.393-4.6c0.788-0.798,1.882-1.313,3.274-1.313s2.486,0.516,3.275,1.313
		c1.16,1.196,1.394,2.816,1.394,4.6C334.521,97.897,334.287,99.516,333.127,100.713"/>
	<path clip-path="url(#SVGID_2_)" fill="#646569" d="M344.107,92.546c-0.628-0.633-1.094-0.844-1.977-0.844
		c-1.67,0-2.739,1.338-2.739,3.097v7.086h-1.671V90.34h1.671v1.409c0.629-0.962,1.883-1.548,3.204-1.548
		c1.093,0,1.929,0.257,2.741,1.077L344.107,92.546z"/>
	<path clip-path="url(#SVGID_2_)" fill="#646569" d="M352.424,91.704c-2.484,0-2.88,2.158-2.88,4.411c0,2.252,0.396,4.41,2.88,4.41
		s2.856-2.158,2.856-4.41C355.28,93.862,354.908,91.704,352.424,91.704 M355.56,101.018c-0.604,0.609-1.626,1.009-2.787,1.009
		c-1.255,0-2.299-0.306-3.229-1.502v6.523h-1.672V90.342h1.672v1.361c0.93-1.221,1.974-1.502,3.229-1.502
		c1.161,0,2.183,0.397,2.787,1.008c1.16,1.174,1.394,3.098,1.394,4.905C356.953,97.92,356.72,99.844,355.56,101.018"/>
	<path clip-path="url(#SVGID_2_)" fill="#646569" d="M366.682,92.546c-0.534-0.539-1.276-0.844-2.088-0.844
		c-0.813,0-1.533,0.305-2.067,0.844c-0.838,0.846-0.929,2.277-0.929,3.568c0,1.29,0.091,2.722,0.929,3.564
		c0.534,0.54,1.254,0.846,2.067,0.846c0.812,0,1.554-0.306,2.088-0.846c0.837-0.843,0.907-2.274,0.907-3.564
		C367.589,94.824,367.519,93.392,366.682,92.546 M367.867,100.713c-0.789,0.798-1.882,1.313-3.273,1.313
		c-1.394,0-2.486-0.516-3.275-1.313c-1.161-1.197-1.393-2.816-1.393-4.599c0-1.783,0.231-3.403,1.393-4.6
		c0.789-0.798,1.882-1.313,3.275-1.313c1.392,0,2.484,0.516,3.273,1.313c1.162,1.196,1.394,2.816,1.394,4.6
		C369.261,97.897,369.029,99.516,367.867,100.713"/>
	<path clip-path="url(#SVGID_2_)" fill="#646569" d="M378.598,92.546c-0.628-0.633-1.091-0.844-1.975-0.844
		c-1.672,0-2.741,1.338-2.741,3.097v7.086h-1.671V90.34h1.671v1.409c0.629-0.962,1.883-1.548,3.205-1.548
		c1.094,0,1.929,0.257,2.74,1.077L378.598,92.546z"/>
	<path clip-path="url(#SVGID_2_)" fill="#646569" d="M388.861,96.559h-3.204c-1.721,0-2.557,0.705-2.557,2.043
		c0,1.337,0.813,1.971,2.625,1.971c0.976,0,1.834-0.071,2.554-0.774c0.395-0.375,0.582-1.032,0.582-1.995V96.559z M388.861,101.886
		v-1.103c-0.931,0.938-1.767,1.243-3.299,1.243c-1.579,0-2.508-0.305-3.229-1.057c-0.556-0.563-0.858-1.43-0.858-2.346
		c0-2.019,1.394-3.331,3.948-3.331h3.438v-1.104c0-1.688-0.836-2.534-2.928-2.534c-1.462,0-2.205,0.354-2.879,1.315l-1.138-1.056
		c1.022-1.339,2.183-1.714,4.042-1.714c3.064,0,4.573,1.338,4.573,3.849v7.837H388.861z"/>
	<path clip-path="url(#SVGID_2_)" fill="#646569" d="M397.802,101.886c-1.951,0-2.929-1.385-2.929-3.098v-7.087h-1.438v-1.289h1.438
		v-3.614h1.674v3.614h2.438v1.289h-2.438v7.039c0,1.058,0.487,1.69,1.557,1.69h0.882v1.455H397.802z"/>
	<path clip-path="url(#SVGID_2_)" fill="#646569" d="M402.679,90.342h1.671v11.545h-1.671V90.342z M402.587,85.156h1.882v1.901
		h-1.882V85.156z"/>
	<path clip-path="url(#SVGID_2_)" fill="#646569" d="M414.708,92.546c-0.534-0.539-1.276-0.844-2.09-0.844
		c-0.812,0-1.532,0.305-2.067,0.844c-0.836,0.846-0.928,2.277-0.928,3.568c0,1.29,0.092,2.722,0.928,3.564
		c0.535,0.54,1.256,0.846,2.067,0.846c0.813,0,1.556-0.306,2.09-0.846c0.836-0.843,0.906-2.274,0.906-3.564
		C415.614,94.824,415.544,93.392,414.708,92.546 M415.894,100.713c-0.789,0.798-1.883,1.313-3.275,1.313s-2.484-0.516-3.274-1.313
		c-1.16-1.197-1.393-2.816-1.393-4.599c0-1.783,0.232-3.403,1.393-4.6c0.79-0.798,1.882-1.313,3.274-1.313s2.486,0.516,3.275,1.313
		c1.161,1.196,1.394,2.816,1.394,4.6C417.287,97.897,417.055,99.516,415.894,100.713"/>
	<path clip-path="url(#SVGID_2_)" fill="#646569" d="M427.137,101.886v-7.11c0-2.041-1.09-3.074-2.811-3.074
		c-1.718,0-2.834,1.057-2.834,3.074v7.11h-1.67V90.341h1.67v1.268c0.814-0.938,1.93-1.408,3.206-1.408
		c1.232,0,2.23,0.375,2.926,1.078c0.814,0.8,1.186,1.878,1.186,3.215v7.393H427.137z"/>
	<path clip-path="url(#SVGID_2_)" fill="#0084AD" d="M61.678,70.487l-6.233,16.757c-0.105,0.281,0.117,0.576,0.434,0.576h12.297
		c0.315,0,0.538-0.293,0.436-0.573l-6.065-16.756C62.406,70.101,61.823,70.099,61.678,70.487 M73.615,101.297l-2.828-7.792
		c-0.064-0.175-0.238-0.293-0.435-0.293H53.573c-0.196,0-0.371,0.118-0.435,0.293l-2.827,7.792
		c-0.064,0.176-0.238,0.293-0.435,0.293h-6.15c-0.319,0-0.542-0.299-0.431-0.583l15.858-40.85c0.066-0.17,0.238-0.284,0.431-0.284
		h1.277c2.283,0,4.323,1.345,5.109,3.37l14.66,37.764c0.11,0.284-0.112,0.583-0.432,0.583h-6.149
		C73.854,101.59,73.679,101.473,73.615,101.297"/>
	<path clip-path="url(#SVGID_2_)" fill="#0084AD" d="M109.457,68.368c-1.862-1.933-4.344-2.811-7.508-2.811h-7.67
		c-0.253,0-0.459,0.194-0.459,0.434v29.483c0,0.238,0.206,0.433,0.459,0.433h7.67c3.164,0,5.646-0.879,7.508-2.812
		c2.295-2.402,2.357-6.913,2.357-12.657C111.813,74.697,111.751,70.772,109.457,68.368 M114.047,97.665
		c-2.792,2.637-6.826,3.927-11.416,3.927H87.578c-0.254,0-0.459-0.195-0.459-0.435v-40.85c0-0.239,0.205-0.434,0.459-0.434h15.054
		c4.59,0,8.624,1.289,11.416,3.926c4.779,4.511,4.468,10.605,4.468,16.639C118.516,86.474,118.827,93.154,114.047,97.665"/>
	<path clip-path="url(#SVGID_2_)" fill="#0084AD" d="M141.164,101.942c-6.459,0-11.157-1.387-15.291-5.184
		c-0.188-0.171-0.191-0.468-0.006-0.641l0.797-0.74c1.773-1.652,4.447-1.857,6.64-0.74c2.351,1.199,4.944,1.621,7.984,1.621
		c5.771,0,9.12-2.343,9.12-6.386c0-1.816-0.557-3.34-1.736-4.336c-1.116-0.995-2.234-1.406-4.841-1.758l-5.211-0.703
		c-3.599-0.47-6.454-1.642-8.377-3.341c-2.172-1.933-3.226-4.568-3.226-7.966c0-7.267,5.584-12.246,14.767-12.246
		c5.642,0,9.658,1.315,13.34,4.423c0.2,0.168,0.209,0.475,0.019,0.652c-1.967,1.831-4.917,2.457-7.461,1.44
		c-1.848-0.738-3.867-1.008-6.083-1.008c-5.213,0-8.067,2.812-8.067,6.504c0,1.523,0.496,2.87,1.675,3.867
		c1.117,0.938,2.916,1.64,4.964,1.934l5.027,0.702c4.094,0.587,6.39,1.524,8.251,3.106c2.42,1.992,3.599,4.98,3.599,8.556
		C157.048,97.373,150.408,101.942,141.164,101.942"/>
	<path clip-path="url(#SVGID_2_)" fill="#0084AD" d="M179.312,101.942c-4.592,0-8.563-1.583-11.603-4.452
		c-4.343-4.102-4.281-8.731-4.281-16.757c0-8.027-0.062-12.656,4.281-16.758c3.04-2.871,7.011-4.452,11.603-4.452
		c7.951,0,13.942,4.316,15.653,12.291c0.057,0.272-0.17,0.54-0.464,0.54h-3.399c-1.634,0-3.019-0.97-3.719-2.363
		c-1.459-2.911-4.15-4.785-8.071-4.785c-2.606,0-4.963,0.937-6.515,2.519c-2.172,2.227-2.669,4.629-2.669,13.008
		c0,8.377,0.497,10.781,2.669,13.007c1.552,1.582,3.909,2.519,6.515,2.519c3.432,0,5.95-1.435,7.515-3.743
		c1.372-2.023,3.58-3.405,6.126-3.405h1.551c0.292,0,0.522,0.268,0.465,0.537C193.31,97.625,187.142,101.942,179.312,101.942"/>
	<rect x="210.877" y="43.032" clip-path="url(#SVGID_2_)" fill="#C4D600" width="1.5" height="75.453"/>
</g>
</svg>
