<svg id="Layer_1" data-name="Layer 1" xmlns="http://www.w3.org/2000/svg" viewBox="0 0 425.17 170.75"><defs><style>.cls-1{fill:#ce0e2d;}.cls-2{fill:#212721;}.cls-3{fill:#fff;}</style></defs><title>Quikcard_Logo_2018_FullCol</title><path class="cls-1" d="M299.85,66.27H116.05a16.74,16.74,0,0,0-15.83,13.24L87.61,149.58l-11.77,67.2C74.54,224.05,79.52,230,86.91,230H457.65c7.4,0,14.7-6,16-13.23l6.86-40.29L489.16,128c.82-4.66,1.41-7.94,1.41-7.95v0C490.47,118,486.07,66.27,299.85,66.27Z" transform="translate(-75.63 -59.25)"/><path class="cls-2" d="M489.53,59.25H376.11s51.08,6.08,84,23.18,33.12,29.45,33.18,30.55l4.83-26.86,2.45-13.63h0C501.91,65.2,496.93,59.25,489.53,59.25Z" transform="translate(-75.63 -59.25)"/><path class="cls-3" d="M202.8,145.93c.63-2.75,1-4.52.86-5.3s-.53-1-1.81-1.12l-1.82-.19.56-2.43c2,.07,4.79.2,7.82.2s5.78-.13,7.86-.2l-.56,2.43-1.91.19c-1.34.13-1.92.46-2.32,1.12a22.4,22.4,0,0,0-1.57,5.3l-3.72,16.25c-2.12,9.24-3,15.06,5.52,15.06s10.76-6,12.94-15.52l3.62-15.79c.63-2.75,1-4.52.86-5.3s-.53-1-1.81-1.12l-1.82-.19.56-2.43c1.89.07,3.83.2,5.75.2s3.86-.13,5.79-.2l-.55,2.43-1.91.19c-1.34.13-1.92.46-2.33,1.12a22.91,22.91,0,0,0-1.57,5.3l-4.38,19.13c-2.75,12-8.92,17.56-18.05,17.56-9.53,0-13.2-5.31-11.51-12.71Z" transform="translate(-75.63 -59.25)"/><path class="cls-3" d="M247.44,172.66c-.64,2.75-1,4.52-.86,5.3.08.53.57.79,1.85.92l1.82.2-.6,2.62c-2.05-.07-4.79-.2-7.77-.2s-5.83.13-7.91.2l.6-2.62,1.91-.2c1.34-.13,2-.39,2.28-.92a23.44,23.44,0,0,0,1.57-5.3l6.12-26.73c.63-2.75,1-4.52.87-5.3-.09-.53-.58-.79-1.86-.92l-1.82-.2.6-2.62c2,.07,4.79.2,7.82.2s5.78-.13,7.86-.2l-.6,2.62-1.91.2c-1.34.13-2,.39-2.28.92a22.91,22.91,0,0,0-1.57,5.3Z" transform="translate(-75.63 -59.25)"/><path class="cls-3" d="M269.46,145.93c.63-2.75,1-4.52.86-5.3-.08-.53-.58-.79-1.86-.92l-1.82-.2.6-2.62c2.05.07,4.8.2,7.82.2s5.78-.13,7.87-.2l-.61,2.62-1.91.2c-1.34.13-2,.39-2.27.92a22.4,22.4,0,0,0-1.57,5.3l-2.78,12.12c-.06.26.11.39.36.39l12.25-12.05c1.57-1.57,3.66-3.86,5.19-5.5a5.13,5.13,0,0,0,1.35-2.36l.37-1.64c1.5.07,3,.2,4.55.2s3.1-.13,4.63-.2l-.58,2.56c-2.18.26-4.13.39-6.06,2.22l-14.31,13.56,8.72,20.51c.69,1.64,1.67,3.27,3.84,3.27l-.62,2.69c-1.7-.07-3.33-.2-5-.2s-3.46.13-5.19.2l-6.76-16.31c-.74-1.84-1.82-4.59-2.64-5.18-.39-.06-.63.33-.69.59l-2.72,11.86c-.63,2.75-1,4.52-.86,5.3.08.53.57.79,1.85.92l1.83.2-.6,2.62c-2.06-.07-4.8-.2-7.77-.2s-5.84.13-7.92.2l.6-2.62,1.91-.2c1.35-.13,2-.39,2.28-.92a22.91,22.91,0,0,0,1.57-5.3Z" transform="translate(-75.63 -59.25)"/><path class="cls-3" d="M326.12,179a21.75,21.75,0,0,1-12.43,3.61c-11.5,0-18.05-8.39-14.46-24,3.45-15.07,14.61-22.6,25.35-22.6a19.66,19.66,0,0,1,11.65,3.08l.14.71c-1,2.36-2.56,7.21-3.46,10h-2l1-5.64c-1.7-3.34-4.61-4.52-8-4.52-8.37,0-14.58,7.73-16.95,18.08-2.75,12,.61,20.64,10.15,20.64a21.79,21.79,0,0,0,10.4-3.34l.42.78Z" transform="translate(-75.63 -59.25)"/><path class="cls-3" d="M341.13,168l-3.8,7.33c-1.28,2.49-.54,3.67.36,3.74l2.47.19-.56,2.43c-2.4-.07-4.19-.2-5.65-.2s-3.31.13-5.74.2l.55-2.43,1.56-.19c1.35-.2,2.68-2,3.73-3.93l15.7-28.69,2.35-4.52,1.42-2.69,1.37-2.69h3.58l4,39.64c.18,1.63.61,2.62,2.12,2.88l1.16.19-.55,2.43c-3.37-.07-5.81-.2-7.78-.2s-4.52.13-7.86.2l.55-2.43,2.72-.19c.83-.07,1.71-1.51,1.53-3.6l-.55-7.47Zm2.05-3.67h10.29L352,147.7Z" transform="translate(-75.63 -59.25)"/><path class="cls-3" d="M380.69,145.93c.63-2.75,1-4.52.86-5.3s-.53-1-1.82-1.12l-1.81-.19.55-2.43c3.31.07,5.85.2,8.43.2,3.43,0,6.84-.13,10.28-.2,5.17-.13,9.45,1.9,7.66,9.7a16.75,16.75,0,0,1-10.17,11.59l5,17.95a6.5,6.5,0,0,0,1,2,3.4,3.4,0,0,0,1.86.92l-.6,2.62c-1.6-.07-3.23-.2-4.85-.2s-3,.13-4.58.2L386.42,159l.62-1.18c4.52.52,8.81-3.21,10.22-9.37,1.23-5.37-1-8.25-4.92-8.25a7.25,7.25,0,0,0-3.36.59l-7.31,31.9c-.63,2.75-1,4.52-.86,5.3.08.53.57.79,1.86.92l1.82.2-.61,2.62c-2.05-.07-4.79-.2-7.77-.2s-5.83.13-7.91.2l.6-2.62,1.91-.2c1.35-.13,2-.39,2.28-.92a22.91,22.91,0,0,0,1.57-5.3Z" transform="translate(-75.63 -59.25)"/><path class="cls-3" d="M416.15,145.93c.62-2.75,1-4.52.86-5.3s-.53-1-1.82-1.12l-1.81-.19.55-2.43c3.31.07,5.85.2,7.82.2,3.28,0,8.57-.2,13-.2,10.84,0,15.72,5.77,12.36,20.44-3.63,15.85-15.83,24.63-26.57,24.37-2.5-.07-4.94-.2-7.47-.2s-5,.13-7.76.2l.35-1.51,1.89-1.18c.94-.59,1.39-1.7,1.86-3.73ZM416,177.77a18.47,18.47,0,0,0,4.26.33c10,0,16-6.42,19-19.52s-.12-18.41-11.61-18.41a17.2,17.2,0,0,0-3.14.26Z" transform="translate(-75.63 -59.25)"/><path class="cls-3" d="M126.9,202.75c13.06-27.86,26.19-8.18,46.63-6.38a13.5,13.5,0,0,0,9.37-2.88,27.75,27.75,0,0,0,6.1-6.28c3.07-4.37,3.21-7.68,3.21-7.68s.45.13.94,1c.39.7.13,2.91-.48,5.22a33.52,33.52,0,0,1-5.25,10.8,37.52,37.52,0,0,1-6.28,6.42,22.87,22.87,0,0,1-8.06,4.37,27.14,27.14,0,0,1-7.31,1.18,39.42,39.42,0,0,1-14.05-3q-7.86-3-11.67-3a19.17,19.17,0,0,0-6.4,1.19q-2,.75-5.23,2.38l-1.52-3.27" transform="translate(-75.63 -59.25)"/><path class="cls-3" d="M131.92,173.88q-5.92-7.47-6.28-23.53-.47-21.42,12.39-40.94,13.1-20,29.67-20a23.39,23.39,0,0,1,18.59,8.69q7.4,8.7,7.72,23.52.45,20.45-10.82,39.53c-8.78,14.94-20.1,24.17-33.61,22.4C137.39,182,131.92,173.88,131.92,173.88Zm10.21-3.1q2.69,8,9.29,8,6.2,0,11.14-5.83t10-22.27a146.54,146.54,0,0,0,4.9-21.83A115.85,115.85,0,0,0,179,110.29a24,24,0,0,0-2.86-11.51A8.9,8.9,0,0,0,167.89,94q-13.06,0-21.32,29.53-6.27,22.42-5.94,37.36A33.38,33.38,0,0,0,142.13,170.78Z" transform="translate(-75.63 -59.25)"/><path class="cls-3" d="M456,138.37h-2.46v6.81h-1.3v-6.81h-2.46v-1.05H456Zm10.26,6.81H465v-6.56h0l-2.58,6.56h-.82l-2.58-6.56h0v6.56h-1.3v-7.86h2l2.35,6,2.31-6h2Z" transform="translate(-75.63 -59.25)"/></svg>