<?xml version="1.0" encoding="utf-8"?>
<!-- Generator: Adobe Illustrator 15.1.0, SVG Export Plug-In . SVG Version: 6.00 Build 0)  -->
<!DOCTYPE svg PUBLIC "-//W3C//DTD SVG 1.1//EN" "http://www.w3.org/Graphics/SVG/1.1/DTD/svg11.dtd">
<svg version="1.1" id="Layer_1" xmlns="http://www.w3.org/2000/svg" xmlns:xlink="http://www.w3.org/1999/xlink" x="0px" y="0px"
	 width="576px" height="288px" viewBox="0 0 576 288" enable-background="new 0 0 576 288" xml:space="preserve">
<path fill="#CF0A2C" d="M303.682,40.465h-17.878H59.358c-9.836,0-19.306,7.932-21.049,17.604l-16.753,93.14L5.909,240.533
	c-1.732,9.672,4.885,17.583,14.707,17.583h246.41l246.412-0.013c9.837,0,19.546-7.919,21.266-17.595l9.129-53.556l11.489-64.446
	c1.1-6.185,1.873-10.551,1.873-10.563v-0.048C557.064,109.183,551.222,40.465,303.682,40.465"/>
<path fill="#222720" d="M555.818,31.141h-132.89h-17.88c0,0,67.906,8.074,111.698,30.811c43.791,22.738,44.031,39.144,44.104,40.609
	l6.42-35.709l3.259-18.115v-0.012C572.267,39.045,565.651,31.141,555.818,31.141"/>
<path fill="#FFFFFF" d="M174.677,146.36c0.834-3.654,1.301-6.006,1.142-7.052c-0.136-0.873-0.706-1.307-2.406-1.48l-2.424-0.26
	l0.743-3.221c2.725,0.083,6.371,0.26,10.396,0.26c3.953,0,7.684-0.178,10.446-0.26l-0.736,3.221l-2.542,0.26
	c-1.779,0.173-2.552,0.607-3.087,1.48c-0.645,1.046-1.245,3.398-2.082,7.052l-4.952,21.598c-2.811,12.278-3.99,20.025,7.34,20.025
	c11.194,0,14.306-8.013,17.204-20.634l4.805-20.989c0.842-3.654,1.313-6.006,1.147-7.052c-0.134-0.873-0.706-1.307-2.406-1.48
	l-2.418-0.26l0.737-3.221c2.523,0.083,5.1,0.26,7.647,0.26c2.547,0,5.131-0.178,7.703-0.26l-0.736,3.221l-2.542,0.26
	c-1.78,0.173-2.552,0.607-3.087,1.48c-0.645,1.046-1.252,3.398-2.087,7.052l-5.83,25.428c-3.653,15.934-11.852,23.338-23.986,23.338
	c-12.668,0-17.553-7.058-15.301-16.896L174.677,146.36z"/>
<path fill="#FFFFFF" d="M234.009,181.888c-0.842,3.654-1.307,6.008-1.142,7.05c0.104,0.703,0.761,1.049,2.467,1.224l2.418,0.259
	l-0.798,3.487c-2.725-0.087-6.376-0.261-10.329-0.261c-4.026,0-7.752,0.174-10.52,0.261l0.798-3.487l2.541-0.259
	c1.78-0.175,2.603-0.521,3.026-1.224c0.638-1.042,1.246-3.396,2.087-7.05l8.145-35.527c0.833-3.654,1.307-6.007,1.147-7.053
	c-0.11-0.698-0.767-1.042-2.474-1.219l-2.418-0.26l0.798-3.481c2.725,0.083,6.377,0.261,10.398,0.261
	c3.958,0,7.684-0.178,10.452-0.261l-0.798,3.481l-2.542,0.26c-1.785,0.177-2.596,0.521-3.025,1.219
	c-0.645,1.046-1.252,3.399-2.086,7.053L234.009,181.888z"/>
<path fill="#FFFFFF" d="M263.278,146.36c0.842-3.654,1.308-6.006,1.148-7.052c-0.111-0.699-0.769-1.042-2.474-1.219l-2.417-0.261
	l0.797-3.481c2.725,0.083,6.376,0.26,10.396,0.26c3.954,0,7.685-0.178,10.453-0.26l-0.798,3.481l-2.541,0.261
	c-1.786,0.176-2.595,0.52-3.026,1.219c-0.643,1.046-1.25,3.398-2.085,7.052l-3.696,16.11c-0.08,0.348,0.147,0.522,0.485,0.522
	l16.277-16.022c2.086-2.09,4.867-5.137,6.905-7.315c0.982-1.047,1.553-2.088,1.791-3.13l0.497-2.178
	c1.989,0.083,4.033,0.26,6.04,0.26c2.014,0,4.131-0.178,6.161-0.26l-0.778,3.394c-2.897,0.349-5.481,0.525-8.053,2.96
	l-19.014,18.022l11.587,27.259c0.909,2.177,2.223,4.353,5.101,4.353l-0.816,3.572c-2.266-0.089-4.431-0.261-6.709-0.261
	c-2.282,0-4.602,0.172-6.897,0.261l-8.979-21.684c-0.982-2.44-2.424-6.099-3.517-6.879c-0.516-0.089-0.835,0.435-0.915,0.78
	l-3.615,15.764c-0.834,3.654-1.308,6.007-1.148,7.048c0.11,0.704,0.768,1.05,2.467,1.225l2.425,0.261l-0.797,3.485
	c-2.732-0.089-6.376-0.261-10.33-0.261c-4.027,0-7.757,0.172-10.526,0.261l0.799-3.485l2.547-0.261
	c1.786-0.175,2.596-0.521,3.025-1.225c0.638-1.041,1.247-3.394,2.087-7.048L263.278,146.36z"/>
<path fill="#FFFFFF" d="M338.599,190.335c-5.463,3.652-11.157,4.791-16.522,4.791c-15.282,0-23.991-11.149-19.223-31.956
	c4.591-20.03,19.418-30.043,33.7-30.043c5.499,0,9.852,0.607,15.486,4.094l0.184,0.955c-1.387,3.137-3.4,9.579-4.597,13.325h-2.608
	l1.375-7.487c-2.266-4.444-6.126-6.012-10.687-6.012c-11.132,0-19.387,10.273-22.536,24.032
	c-3.658,15.937,0.816,27.428,13.491,27.428c3.951,0,9.808-1.826,13.82-4.438l0.564,1.045L338.599,190.335z"/>
<path fill="#FFFFFF" d="M358.552,175.709l-5.059,9.747c-1.692,3.311-0.71,4.879,0.48,4.964l3.289,0.262l-0.742,3.226
	c-3.199-0.087-5.566-0.26-7.514-0.26c-1.944,0-4.399,0.173-7.635,0.26l0.737-3.226l2.073-0.262c1.8-0.259,3.567-2.697,4.954-5.221
	l20.874-38.14l3.118-6.008l1.89-3.572l1.829-3.57h4.756l5.285,52.681c0.245,2.177,0.816,3.484,2.816,3.83l1.548,0.262l-0.737,3.226
	c-4.474-0.087-7.714-0.26-10.336-0.26c-2.614,0-6.008,0.173-10.446,0.26l0.731-3.226l3.614-0.262
	c1.099-0.085,2.271-2.003,2.039-4.786l-0.737-9.925H358.552z M361.276,170.83h13.675l-1.902-22.117L361.276,170.83z"/>
<path fill="#FFFFFF" d="M411.132,146.36c0.842-3.654,1.307-6.006,1.148-7.052c-0.136-0.873-0.705-1.307-2.412-1.48l-2.419-0.26
	l0.736-3.221c4.407,0.083,7.782,0.26,11.208,0.26c4.554,0,9.09-0.178,13.661-0.26c6.882-0.178,12.563,2.525,10.188,12.886
	c-1.748,7.66-7.357,12.799-13.521,15.41l6.673,23.859c0.244,0.954,0.768,1.914,1.319,2.698c0.466,0.607,1.277,0.874,2.473,1.221
	l-0.797,3.485c-2.13-0.089-4.303-0.261-6.445-0.261c-2.013,0-4.063,0.172-6.095,0.261l-8.095-30.217l0.828-1.57
	c6.009,0.698,11.71-4.266,13.582-12.448c1.64-7.139-1.307-10.971-6.536-10.971c-1.405,0-3.234,0.086-4.468,0.78l-9.723,42.408
	c-0.84,3.654-1.307,6.007-1.14,7.048c0.104,0.704,0.759,1.05,2.466,1.225l2.419,0.261l-0.799,3.485
	c-2.731-0.089-6.378-0.261-10.329-0.261c-4.026,0-7.752,0.172-10.52,0.261l0.797-3.485l2.542-0.261
	c1.786-0.175,2.603-0.521,3.032-1.225c0.639-1.041,1.246-3.394,2.081-7.048L411.132,146.36z"/>
<path fill="#FFFFFF" d="M458.269,146.36c0.835-3.654,1.307-6.006,1.147-7.054c-0.134-0.87-0.706-1.305-2.412-1.478l-2.418-0.261
	l0.742-3.222c4.396,0.083,7.777,0.262,10.392,0.262c4.356,0,11.39-0.262,17.29-0.262c14.416,0,20.903,7.662,16.436,27.165
	c-4.831,21.071-21.046,32.743-35.315,32.396c-3.326-0.089-6.574-0.261-9.93-0.261c-3.354,0-6.679,0.172-10.317,0.261l0.459-2.006
	l2.511-1.566c1.253-0.786,1.854-2.266,2.479-4.964L458.269,146.36z M458.023,188.676c1.847,0.438,3.786,0.438,5.665,0.438
	c13.342,0,21.326-8.532,25.322-25.944c3.947-17.243-0.16-24.471-15.441-24.471c-1.345,0-2.7,0.088-4.174,0.349L458.023,188.676z"/>
<path fill="#FFFFFF" d="M73.779,221.894c17.366-37.033,34.813-10.88,61.983-8.483c4.857,0.429,9.032-1.278,12.463-3.828
	c2.203-1.58,5.446-4.561,8.104-8.346c4.079-5.813,4.262-10.218,4.262-10.218s0.602,0.178,1.252,1.332
	c0.522,0.926,0.178,3.874-0.631,6.946c-1.611,6.13-4.901,11.55-6.979,14.354c-2.075,2.799-4.862,5.639-8.354,8.528
	c-3.493,2.827-7.061,4.763-10.708,5.812c-3.642,1.041-6.889,1.567-9.723,1.567c-5.49,0-11.719-1.348-18.676-4.035
	c-6.96-2.696-12.131-4.035-15.513-4.035c-2.673,0-5.508,0.525-8.51,1.579c-1.727,0.67-4.039,1.721-6.944,3.163L73.779,221.894"/>
<path fill="#FFFFFF" d="M80.45,183.516c-5.248-6.616-8.026-17.048-8.338-31.286c-0.42-18.978,5.067-37.115,16.459-54.417
	c11.606-17.701,24.749-26.552,39.443-26.552c9.927,0,18.165,3.848,24.712,11.55c6.555,7.702,9.971,18.119,10.26,31.262
	c0.398,18.119-4.393,35.64-14.375,52.543c-11.676,19.86-26.723,32.134-44.674,29.783C87.73,194.275,80.45,183.516,80.45,183.516
	 M94.023,179.396c2.378,7.109,6.494,10.657,12.352,10.657c5.491,0,10.429-2.575,14.807-7.752c4.376-5.171,8.817-15.03,13.311-29.595
	c2.831-9.182,5.004-18.86,6.505-29.026c1.5-10.171,2.185-18.4,2.042-24.701c-0.128-5.949-1.398-11.05-3.808-15.297
	c-2.411-4.241-6.063-6.366-10.968-6.366c-11.571,0-21.02,13.084-28.339,39.252c-5.557,19.876-8.184,36.43-7.893,49.659
	C92.142,171.372,92.808,175.757,94.023,179.396"/>
<path fill="#FFFFFF" d="M511.235,136.304h-3.271v9.061h-1.732v-9.061h-3.265v-1.394h8.268V136.304z M524.867,145.364h-1.724v-8.726
	h-0.056l-3.425,8.726h-1.093l-3.426-8.726h-0.05v8.726h-1.724V134.91h2.664l3.124,7.945l3.067-7.945h2.641V145.364z"/>
</svg>
